<?xml version="1.0" encoding="iso-8859-1"?>
<!-- Uploaded to: SVG Repo, www.svgrepo.com, Generator: SVG Repo Mixer Tools -->
<svg version="1.1" id="Layer_1" xmlns="http://www.w3.org/2000/svg" xmlns:xlink="http://www.w3.org/1999/xlink" 
	 viewBox="0 0 512 512" xml:space="preserve">
<path style="fill:#688787;" d="M68.347,369.567H21.019c-7.143,0-12.935-5.79-12.935-12.935V21.019
	c0-7.143,5.792-12.935,12.935-12.935h469.962c7.145,0,12.935,5.792,12.935,12.935v335.613c0,7.144-5.789,12.935-12.935,12.935
	H94.753"/>
<polyline style="fill:#53CAF9;" points="457.958,47.543 503.916,47.543 503.916,315.363 8.084,315.363 8.084,47.543 431.01,47.543 
	"/>
<rect x="47.287" y="102.907" style="fill:#AAE6F9;" width="417.426" height="41.679"/>
<rect x="47.287" y="182.595" style="fill:#EFD760;" width="188.987" height="75.916"/>
<rect x="236.275" y="369.567" style="fill:#547475;" width="39.458" height="90.726"/>
<path style="fill:#688787;" d="M275.731,443.046v17.251h-39.458v-17.251c-65.657,2.154-116.086,14.886-116.086,30.274
	c0,16.898,60.806,30.596,135.815,30.596s135.815-13.698,135.815-30.596C391.815,457.932,341.388,445.2,275.731,443.046z"/>
<g style="opacity:0.2;">
	<rect x="236.275" y="369.567" style="fill:#231F20;" width="26.031" height="90.726"/>
</g>
<g style="opacity:0.2;">
	<path style="fill:#231F20;" d="M146.223,480.147c0-13.28,37.558-24.58,90.048-28.812v-8.289
		c-65.657,2.154-116.086,14.886-116.086,30.274c0,9.239,18.178,17.521,46.914,23.131C153.88,491.73,146.223,486.141,146.223,480.147
		z"/>
</g>
<g style="opacity:0.2;">
	<path style="fill:#231F20;" d="M33.848,356.632V21.019c0-7.143,5.79-12.935,12.935-12.935H21.019
		c-7.143,0-12.935,5.792-12.935,12.935v335.613c0,7.144,5.792,12.935,12.935,12.935h25.764
		C39.638,369.567,33.848,363.777,33.848,356.632z"/>
</g>
<g>
	<path style="fill:#231F20;" d="M490.981,0H21.019C9.429,0,0,9.429,0,21.019v26.524v267.82v41.269
		c0,11.59,9.429,21.019,21.019,21.019h47.328c4.466,0,8.084-3.618,8.084-8.084s-3.618-8.084-8.084-8.084H21.019
		c-2.674,0-4.851-2.176-4.851-4.851v-33.185h479.663v33.185c0,2.674-2.176,4.851-4.851,4.851h-215.25h-39.458H94.753
		c-4.466,0-8.084,3.618-8.084,8.084s3.618,8.084,8.084,8.084h133.434v57.631c-29.5,1.369-56.469,4.911-76.602,10.111
		c-26.569,6.862-39.484,15.997-39.484,27.927c0,12.879,15.074,22.534,46.086,29.521C184.405,508.747,219.142,512,256,512
		s71.595-3.253,97.812-9.159c31.012-6.987,46.086-16.643,46.086-29.521c0-11.93-12.914-21.065-39.483-27.927
		c-20.132-5.2-47.101-8.742-76.601-10.111v-57.631h207.166c11.59,0,21.019-9.429,21.019-21.019v-41.269V47.543V21.019
		C512,9.429,502.571,0,490.981,0z M353.24,460.268c24.814,5.965,29.666,11.901,30.404,13.077c-1.226,2.24-9.843,8.812-36.77,14.46
		c-24.678,5.176-56.951,8.027-90.874,8.027s-66.196-2.851-90.874-8.027c-26.927-5.648-35.546-12.22-36.77-14.46
		c0.739-1.176,5.592-7.112,30.406-13.077c18.535-4.457,42.937-7.54,69.425-8.805v8.834c0,4.466,3.618,8.084,8.084,8.084h39.458
		c4.466,0,8.084-3.618,8.084-8.084v-8.834C310.303,452.728,334.705,455.81,353.24,460.268z M267.647,443.046v9.166h-23.29v-9.166
		v-65.395h23.29V443.046z M16.168,307.279V55.627H431.01c4.466,0,8.084-3.618,8.084-8.084s-3.618-8.084-8.084-8.084H16.168v-18.44
		c0-2.674,2.176-4.851,4.851-4.851h469.962c2.674,0,4.851,2.176,4.851,4.851v18.44h-37.874c-4.466,0-8.084,3.618-8.084,8.084
		s3.618,8.084,8.084,8.084h37.874v251.652H16.168z"/>
	<path style="fill:#231F20;" d="M242.019,350.485h27.964c4.466,0,8.084-3.618,8.084-8.084c0-4.466-3.618-8.084-8.084-8.084h-27.964
		c-4.466,0-8.084,3.618-8.084,8.084C233.934,346.867,237.554,350.485,242.019,350.485z"/>
	<path style="fill:#231F20;" d="M464.714,94.82H47.287c-4.466,0-8.084,3.618-8.084,8.084v41.679c0,4.466,3.618,8.084,8.084,8.084
		h417.427c4.466,0,8.084-3.618,8.084-8.084v-41.679C472.798,98.439,469.178,94.82,464.714,94.82z M456.63,136.499H55.371v-25.511
		H456.63L456.63,136.499L456.63,136.499z"/>
	<path style="fill:#231F20;" d="M463.015,174.507H272.207c-4.466,0-8.084,3.618-8.084,8.084c0,4.466,3.618,8.084,8.084,8.084
		h190.808c4.466,0,8.084-3.618,8.084-8.084C471.099,178.125,467.48,174.507,463.015,174.507z"/>
	<path style="fill:#231F20;" d="M463.015,212.467H272.207c-4.466,0-8.084,3.618-8.084,8.084c0,4.466,3.618,8.084,8.084,8.084
		h190.808c4.466,0,8.084-3.618,8.084-8.084C471.099,216.086,467.48,212.467,463.015,212.467z"/>
	<path style="fill:#231F20;" d="M463.015,250.426H272.207c-4.466,0-8.084,3.618-8.084,8.084s3.618,8.084,8.084,8.084h190.808
		c4.466,0,8.084-3.618,8.084-8.084S467.48,250.426,463.015,250.426z"/>
	<path style="fill:#231F20;" d="M236.278,174.507H47.287c-4.466,0-8.084,3.618-8.084,8.084v75.919c0,4.466,3.618,8.084,8.084,8.084
		h188.991c4.466,0,8.084-3.618,8.084-8.084v-75.919C244.362,178.126,240.743,174.507,236.278,174.507z M228.194,250.426H55.371
		v-59.751h172.822L228.194,250.426L228.194,250.426z"/>
</g>
</svg>